# xmcd CD database file
#
# Track frame offsets:
#	150
#	17185
#	32530
#	48070
#	63875
#	76520
#	93757
#	110477
#	125805
#	143942
#
# Disc length: 2166 seconds
#
# Revision: 18
# Processed by: cddbd v1.4PL0 Copyright (c) Steve Scherf et al.
# Submitted via: CDex 1.40Release
#
DISCID=7408740a
DTITLE=Billy Ray Cyrus - Some Gave All
DYEAR=1992
DGENRE=Country
TTITLE0=Could've Been Me
TTITLE1=Achy Breaky Heart
TTITLE2=She's Not Cryin' Anymore
TTITLE3=Where'm I Gonna Live
TTITLE4=These Boots Are Made For Walkin'
TTITLE5=Someday, Somewhere, Somehow
TTITLE6=Never Thought I'd Fall In Love With You
TTITLE7=Ain't No Good Goodbye
TTITLE8=I'm So Miserable
TTITLE9=Some Gave All
EXTD=\n\n\n\n\n\n YEAR: 1992 ID3G: 2
EXTT0=
EXTT1=
EXTT2=
EXTT3=
EXTT4=
EXTT5=
EXTT6=
EXTT7=
EXTT8=
EXTT9=
PLAYORDER=
